<svg width="496" height="644" viewBox="0 0 496 644" fill="none" xmlns="http://www.w3.org/2000/svg">
<path fill-rule="evenodd" clip-rule="evenodd" d="M419.454 38.1502H457.555V75.9965H495.656V340.923H457.555V378.769H419.454V416.617H228.95L228.95 568.004H190.849V605.85H152.747V643.697H38.4445L38.4445 605.85H0.343994L0.343994 492.31H38.4445V530.157H76.5463V492.31H38.4445V454.463H76.5463L76.5463 75.9965H114.647V38.1502L152.747 38.1502V0.302551L419.454 0.302551V38.1502ZM267.05 340.923H305.151V303.077H267.05V340.923ZM267.05 265.231H343.253V189.537H267.05V265.231ZM267.05 151.69H305.151V113.843H267.05V151.69Z" fill="white"/>
</svg>
